<svg xmlns="http://www.w3.org/2000/svg" fill="#fff" viewBox="0 0 125 25">
    <path d="M13.9025 6H0v15h3.86952v-4.8801h7.41458L14.6671 21H19l-3.7305-4.9025c1.1586-.1799 1.9927-.6072 2.5025-1.2819.5097-.6746.7646-1.7541.7646-3.1934v-1.1244c0-.85462-.0926-1.52925-.2549-2.04655-.1622-.51722-.4402-.967-.8341-1.37179-.4171-.38231-.8805-.65217-1.4366-.83209C15.4549 6.08995 14.7597 6 13.9025 6Zm-.6256 6.8141H3.86952V9.30582h9.40738c.5329 0 .9036.08998 1.089.24739.1853.15741.3012.44979.3012.87709v1.2594c0 .4498-.1159.7421-.3012.8995-.1854.1574-.5561.2249-1.089.2249ZM24.7575 16.5697V6H21v10.4798c0 .8545.0675 1.5517.225 2.0689.1575.5398.4275.9895.8325 1.3719.3825.4048.8325.6746 1.3725.832.54.18 1.215.2474 2.07.2474h9c.8325 0 1.5075-.0674 2.0475-.2474.54-.1574.99-.4272 1.395-.832.3825-.3824.6525-.8321.81-1.3719.1576-.5172.2475-1.2144.2475-2.0689V6h-3.7575v10.5697c0 .4498-.1125.7422-.2925.8996-.18.1574-.54.2248-1.0575.2248h-7.785c-.54 0-.9-.0674-1.08-.2248-.18-.1574-.27-.4498-.27-.8996ZM51.8487 21V9.30582H59V6H41v3.30582h7.1512V21h3.6975ZM64.7575 16.5697V6H61v10.4798c0 .8545.0676 1.5517.225 2.0689.1575.5398.4275.9895.8325 1.3719.3825.4048.8325.6746 1.3725.832.54.18 1.215.2474 2.07.2474h9c.8325 0 1.5075-.0674 2.0475-.2474.54-.1574.99-.4272 1.395-.832.3825-.3824.6525-.8321.81-1.3719.1575-.5172.2475-1.2144.2475-2.0689V6h-3.7575v10.5697c0 .4498-.1125.7422-.2925.8996-.1801.1574-.54.2248-1.0575.2248h-7.785c-.54 0-.9-.0674-1.08-.2248-.18-.1574-.27-.4498-.27-.8996ZM98.2567 10.3628v-.2923c0-1.39432-.3603-2.42882-1.0818-3.08099C96.4541 6.33733 95.3054 6 93.7737 6H81v15h13.5169c1.5317 0 2.6805-.3148 3.402-.967C98.6397 19.3808 99 18.3463 99 16.9521v-.3149c0-1.3943-.3603-2.3838-1.0811-2.9685-.1354-.09-.2708-.1575-.4055-.2249-.1354-.0675-.3385-.1574-.586-.2474.4957-.2699.8335-.6297 1.0359-1.0345.1806-.4048.2934-1.012.2934-1.7991Zm-13.4943 1.6417V9.30582h8.4026c.5409 0 .9013.08998 1.0819.24739.1797.15741.27.44979.27.87709v.4498c0 .4498-.0903.7421-.27.8995-.1806.1575-.541.2249-1.0819.2249h-8.4026Zm0 5.6896v-2.6986h9.1685c.5183 0 .8787.0899 1.0592.2474.1798.1574.2927.4498.2927.877v.4498c0 .4498-.1129.7422-.2927.8996-.1805.1574-.5409.2248-1.0592.2248h-9.1685ZM104.837 9.30582h12.543V6H101v15h17v-3.3059h-13.163V15.153h12.244l.299-3.3059h-12.543V9.30582Z"/>
    <path fill="#F41240" d="M121.682 5.25234c1.446 0 2.619-1.17578 2.619-2.62617S123.128 0 121.682 0c-1.447 0-2.62 1.17578-2.62 2.62617s1.173 2.62617 2.62 2.62617Z"/>
</svg>
